<svg width="506" height="212" viewBox="0 0 506 212" xmlns="http://www.w3.org/2000/svg">
<path d="M183.623 135.286H169.151V160.412H146.887V56.4124H181.953C197.909 56.4124 205.887 69.2252 205.887 94.8508C205.887 108.939 203.809 119.367 199.653 126.134C198.094 128.685 195.942 130.849 193.196 132.624C190.45 134.398 187.259 135.286 183.623 135.286ZM169.151 83.0363V108.662H174.272C176.944 108.662 178.873 108.274 180.06 107.497C181.322 106.61 181.953 104.668 181.953 101.673V90.0252C181.953 87.03 181.322 85.1441 180.06 84.3676C178.873 83.4801 176.944 83.0363 174.272 83.0363H169.151Z" />
<path d="M278.467 56.4124H301.887L290.905 160.412H261.658L256.503 122.14H255.159L250.116 160.412H220.869L209.887 56.4124H233.307L238.574 114.486H239.246L247.314 56.4124H264.459L272.416 114.486H273.088L278.467 56.4124Z" />
<path d="M370.887 160.412H346.263L337.085 129.462H332.272V160.412H309.887V56.4124H345.144C361.187 56.4124 369.208 68.5596 369.208 92.854C369.208 109.494 365.738 120.476 358.799 125.801L370.887 160.412ZM332.272 83.0363V103.836H337.421C340.107 103.836 342.047 103.448 343.241 102.672C344.51 101.784 345.144 99.8427 345.144 96.8475V90.0252C345.144 87.03 344.51 85.1441 343.241 84.3676C342.047 83.4801 340.107 83.0363 337.421 83.0363H332.272Z" />
<path d="M401.233 56.4124V132.625H409.166C411.997 132.625 413.933 132.137 414.976 131.162C416.019 130.079 416.541 127.696 416.541 124.012V56.4124H438.887V113.45C438.887 122.658 438.477 130.079 437.658 135.712C436.838 141.346 435.311 146.112 433.077 150.012C430.842 153.912 427.788 156.621 423.915 158.137C420.041 159.654 415.014 160.412 408.831 160.412C402.649 160.412 397.621 159.654 393.747 158.137C389.948 156.621 386.932 153.912 384.697 150.012C382.462 146.112 380.935 141.346 380.116 135.712C379.297 130.079 378.887 122.658 378.887 113.45V56.4124H401.233Z" />
<path d="M483.623 135.286H469.151V160.412H446.887V56.4124H481.953C497.909 56.4124 505.887 69.2252 505.887 94.8508C505.887 108.939 503.809 119.367 499.653 126.134C498.094 128.685 495.942 130.849 493.196 132.624C490.45 134.398 487.259 135.286 483.623 135.286ZM469.151 83.0363V108.662H474.272C476.944 108.662 478.873 108.274 480.06 107.497C481.322 106.61 481.953 104.668 481.953 101.673V90.0252C481.953 87.03 481.322 85.1441 480.06 84.3676C478.873 83.4801 476.944 83.0363 474.272 83.0363H469.151Z" />
<path d="M44.1924 204.054L124.59 91.6988C125.537 90.3752 124.591 88.5349 122.963 88.5349H63.0226C62.0562 88.5349 61.228 89.2259 61.0549 90.1767L40.5983 202.532C40.2159 204.633 42.95 205.791 44.1924 204.054Z" fill="#ED9907"/>
<path d="M82.6614 7.25645L2.26394 119.612C1.31684 120.935 2.26291 122.776 3.89042 122.776H63.8313C64.7977 122.776 65.6258 122.085 65.7989 121.134L86.2555 8.77855C86.638 6.67797 83.9039 5.52008 82.6614 7.25645Z" fill="#F1555A"/>
</svg>
