<svg width="64" height="64" viewBox="0 0 64 64" xmlns="http://www.w3.org/2000/svg">
<g clip-path="url(#clip0)">
<path fill-rule="evenodd" clip-rule="evenodd" d="M46.1421 53.2132C48.0948 55.1658 51.2606 55.1658 53.2132 53.2132C55.1658 51.2606 55.1658 48.0948 53.2132 46.1421L39.0711 32L53.2132 17.8579C55.1658 15.9052 55.1658 12.7394 53.2132 10.7868C51.2606 8.83418 48.0948 8.83417 46.1421 10.7868L32 24.9289L17.8579 10.7868C15.9052 8.83418 12.7394 8.83417 10.7868 10.7868C8.83418 12.7394 8.83417 15.9052 10.7868 17.8579L24.9289 32L10.7868 46.1421C8.83417 48.0948 8.83418 51.2606 10.7868 53.2132C12.7394 55.1658 15.9052 55.1658 17.8579 53.2132L32 39.0711L46.1421 53.2132Z" />
</g>
<defs>
<clipPath id="clip0">
<rect width="64" height="64" />
</clipPath>
</defs>
</svg>
