<svg width="60" height="60" viewBox="0 0 60 60" xmlns="http://www.w3.org/2000/svg">
<path fill-rule="evenodd" clip-rule="evenodd" d="M30.5 0L32.6651 7.5H28.3349L30.5 0ZM48 30C48 39.9411 39.9411 48 30 48C20.0589 48 12 39.9411 12 30C12 20.0589 20.0589 12 30 12C39.9411 12 48 20.0589 48 30ZM32.6651 52.5L30.5 60L28.3349 52.5H32.6651ZM60 29.5L52.5 27.3349V31.6651L60 29.5ZM7.5 27.3349L0 29.5L7.5 31.6651V27.3349ZM6.76777 7.76776L13.602 11.5401L10.5401 14.602L6.76777 7.76776ZM47.0046 12.5401L53.8388 8.76776L50.0665 15.602L47.0046 12.5401ZM51.8388 53.8388L45.0046 50.0664L48.0665 47.0046L51.8388 53.8388ZM15.602 50.0664L8.76777 53.8388L12.5401 47.0046L15.602 50.0664Z" />
</svg>
