<svg width="64" height="64" viewBox="0 0 64 64" xmlns="http://www.w3.org/2000/svg">
<path fill-rule="evenodd" clip-rule="evenodd" d="M2 18C2 9.16344 9.16344 2 18 2H46C54.8366 2 62 9.16344 62 18V46C62 54.8366 54.8366 62 46 62H18C9.16344 62 2 54.8366 2 46V18ZM7 19C7 12.3726 12.3726 7 19 7H45C51.6274 7 57 12.3726 57 19V45C57 51.6274 51.6274 57 45 57H19C12.3726 57 7 51.6274 7 45V19ZM11 34C11 35.1046 11.8954 36 13 36H51C52.1046 36 53 35.1046 53 34V30C53 28.8954 52.1046 28 51 28H13C11.8954 28 11 28.8954 11 30V34Z" fill="var(--error)" />
</svg>
