<svg width="64" height="64" viewBox="0 0 64 64" xmlns="http://www.w3.org/2000/svg">
<path fill-rule="evenodd" clip-rule="evenodd" d="M30.1084 12.7763L23.2384 14.65V10.9027L31.251 2.31768C31.6464 1.89411 32.3178 1.89411 32.7132 2.31768L40.7258 10.9027V14.65L33.8558 12.7763V23.3937H30.1084V12.7763ZM7 35.9475C7 25.3864 12.9727 16.2864 21.5729 12.1518V16.3412C15.0088 20.1732 10.5689 27.5172 10.5689 35.9475C10.5689 48.3353 20.1559 58.3776 31.9821 58.3776C43.8083 58.3776 53.3953 48.3353 53.3953 35.9475C53.3953 27.5172 48.9554 20.1732 42.3913 16.3412V12.1518C50.9915 16.2865 56.9642 25.3864 56.9642 35.9475C56.9642 50.4 45.7793 62.116 31.9821 62.116C18.1849 62.116 7 50.4 7 35.9475Z" />
</svg>
