<svg width="64" height="64" viewBox="0 0 64 64" xmlns="http://www.w3.org/2000/svg">
<path fill-rule="evenodd" clip-rule="evenodd" d="M52.0444 8.41423C52.8255 7.63318 54.0918 7.63318 54.8729 8.41422L57.7013 11.2427C58.4823 12.0237 58.4823 13.29 57.7013 14.0711L53.0582 18.7142L53.0582 18.7142L16.7142 55.0582L11.0573 49.4013L47.4013 13.0573L47.4013 13.0573L52.0444 8.41423ZM52.5933 9.27954C52.9839 8.88901 53.617 8.88901 54.0075 9.27954L56.836 12.108C57.2265 12.4985 57.2265 13.1317 56.836 13.5222L54.8976 15.4605L50.655 11.2179L52.5933 9.27954ZM11.0573 49.4013L7.82843 58.2871L16.7142 55.0582L16.0071 54.3511L11.1315 56.3982L9.71733 54.984L11.7644 50.1084L11.0573 49.4013Z" />
</svg>
