<svg width="64" height="64" viewBox="0 0 64 64" fill="none" xmlns="http://www.w3.org/2000/svg">
<path fill-rule="evenodd" clip-rule="evenodd" d="M61 7C61 9.08315 59.4076 10.7944 57.3736 10.9828L47.4151 32.9163C47.7861 33.5231 48 34.2366 48 35C48 37.2091 46.2091 39 44 39C41.8185 39 40.0449 37.2537 40.0008 35.0828L26.3394 30.2449C25.6816 30.72 24.8735 31 24 31C23.9143 31 23.8292 30.9973 23.7449 30.992L10.5571 55.1686C10.8402 55.7173 11 56.34 11 57C11 59.2091 9.20914 61 7 61C4.79086 61 3 59.2091 3 57C3 54.7909 4.79086 53 7 53C7.0608 53 7.12127 53.0014 7.18141 53.004L20.4065 28.759C20.1462 28.2282 20 27.6312 20 27C20 24.7909 21.7909 23 24 23C26.0679 23 27.7694 24.5693 27.9784 26.5819L41.987 31.5427C42.549 31.2147 43.1983 31.0199 43.8915 31.0014L53.7378 9.31524C53.2732 8.66181 53 7.86281 53 7C53 4.79086 54.7909 3 57 3C59.2091 3 61 4.79086 61 7ZM9 57C9 58.1046 8.10457 59 7 59C5.89543 59 5 58.1046 5 57C5 55.8954 5.89543 55 7 55C8.10457 55 9 55.8954 9 57ZM24 29C25.1046 29 26 28.1046 26 27C26 25.8954 25.1046 25 24 25C22.8954 25 22 25.8954 22 27C22 28.1046 22.8954 29 24 29ZM46 35C46 36.1046 45.1046 37 44 37C42.8954 37 42 36.1046 42 35C42 33.8954 42.8954 33 44 33C45.1046 33 46 33.8954 46 35ZM57 9C58.1046 9 59 8.10457 59 7C59 5.89543 58.1046 5 57 5C55.8954 5 55 5.89543 55 7C55 8.10457 55.8954 9 57 9Z" fill="white"/>
</svg>
