<svg width="64" height="64" viewBox="0 0 64 64" xmlns="http://www.w3.org/2000/svg">
<path fill-rule="evenodd" clip-rule="evenodd" d="M9.96003 45.7992C15.4409 42.4996 23.2866 40 32 40C40.7134 40 48.5591 42.4996 54.04 45.7992C56.5491 41.8001 58 37.0695 58 32C58 17.6406 46.3594 6 32 6C17.6406 6 6.00001 17.6406 6.00001 32C6.00001 37.0695 7.45088 41.8001 9.96003 45.7992ZM56.8765 48.7733C60.1112 43.9853 62 38.2132 62 32C62 15.4315 48.5686 2 32 2C15.4315 2 2.00001 15.4315 2.00001 32C2.00001 37.9224 3.71612 43.4439 6.67821 48.0945C12.0029 56.4545 21.3538 62 32 62C42.3553 62 51.4853 56.7533 56.8765 48.7733ZM32 37C38.6274 37 44 31.6274 44 25C44 18.3726 38.6274 13 32 13C25.3726 13 20 18.3726 20 25C20 31.6274 25.3726 37 32 37Z" />
</svg>
